<!DOCTYPE svg PUBLIC "-//W3C//DTD SVG 1.1//EN" "http://www.w3.org/Graphics/SVG/1.1/DTD/svg11.dtd">
<!-- Uploaded to: SVG Repo, www.svgrepo.com, Transformed by: SVG Repo Mixer Tools -->
<svg fill="#85744c" width="800px" height="800px" viewBox="0 0 512 512" version="1.1" xml:space="preserve" xmlns="http://www.w3.org/2000/svg" xmlns:xlink="http://www.w3.org/1999/xlink">
<g id="SVGRepo_bgCarrier" stroke-width="0"/>
<g id="SVGRepo_tracerCarrier" stroke-linecap="round" stroke-linejoin="round"/>
<g id="SVGRepo_iconCarrier"> <g id="_x34_54_x2C__Idea_x2C__insight_x2C__key_x2C__lamp_x2C__lightbulb"> <g> <path d="M204.05,83.836h18.383l0.346-0.025l0.346,0.025h18.358V55.861 l-18.73-29.859L204.05,55.861V83.836z M219.511,90.346H204.05v148.24h15.461V90.346z M241.482,90.346h-15.437v148.24h15.437 V132.932v-0.08V90.346z M208.884,282.871c0.717,0.611,1.461,1.116,2.285,1.568l0,0l0.744,0.371l0,0l0.134,0.08h0.026l0.134,0.053 l0,0l0.317,0.134l0,0l0.133,0.079h0.026l0.771,0.267l0,0l0.319,0.104l0,0l0.319,0.107l0,0l0.158,0.026l0,0l0.16,0.053h0.026 l0.133,0.027h0.026l0.16,0.054l0,0l0.16,0.026l0,0l0.319,0.052h0.026l0.16,0.027l0,0l0.158,0.025l0,0l0.16,0.027h0.026 l0.319,0.054l0,0l0.186,0.026l0,0h0.16l0,0l0.186,0.026l0,0h0.16l0,0l0.186,0.026h0.16h0.186h0.158h0.186h5.022h0.105h0.081h5.021 c3.746,0,7.147-1.514,9.618-3.984s3.985-5.872,3.985-9.617v-13.602H204.05v13.602c0,3.745,1.541,7.146,3.985,9.617l0.132,0.106 l0.107,0.105l0,0l0.133,0.134l0.105,0.105l0,0l0.133,0.106l0,0l0.107,0.106l0,0L208.884,282.871z M219.511,377.527v-84.906h-1.86 h-0.265h-0.265h-0.241l-0.265-0.025l0,0h-0.239h-0.026l-0.24-0.027l-0.265-0.026l0,0l-0.239-0.026l0,0l-0.267-0.026l0,0 l-0.239-0.026l0,0l-0.265-0.027l0,0l-0.479-0.08l0,0l-0.265-0.053l0,0l-0.241-0.025l0,0l-0.238-0.055l0,0l-0.239-0.053h-0.026 l-0.24-0.053l0,0l-0.239-0.053l0,0l-0.239-0.08l0,0l-0.239-0.053l0,0l-0.24-0.08l0,0l-0.239-0.054l0,0l-0.238-0.079l0,0 l-0.451-0.16h-0.028l-0.212-0.079l0,0l-0.239-0.08l-0.212-0.079h-0.026c-0.665-0.267-1.354-0.584-1.993-0.903l0,0l-0.212-0.106 h-0.026l-0.186-0.133h-0.026c-1.7-0.903-3.241-2.072-4.65-3.454c-0.797-0.798-1.513-1.673-2.178-2.603l0,0l-0.532-0.797l0,0 l-0.131-0.186v-0.027l-0.134-0.187l-0.133-0.212l0,0l-0.105-0.213l0,0l-0.133-0.213l0,0l-0.107-0.213l-0.105-0.212l0,0 l-0.133-0.212l-0.107-0.213l-0.105-0.239l-0.107-0.212l-0.105-0.214l0,0l-0.081-0.238h-0.026l-0.079-0.212l-0.107-0.239 l-0.079-0.213l-0.107-0.239l0,0l-0.079-0.239l-0.081-0.212l0,0l-0.079-0.24l0,0l-0.079-0.239l0,0l-0.081-0.238l0,0l-0.079-0.239 l-0.053-0.239l0,0l-0.081-0.239l0,0l-0.053-0.238l-0.052-0.239l0,0l-0.081-0.239l0,0l-0.053-0.24l0,0l-0.026-0.238l0,0 l-0.055-0.265l-0.053-0.239l-0.052-0.24l0,0l-0.026-0.265l0,0l-0.055-0.239l0,0l-0.026-0.24l0,0l-0.026-0.265l-0.026-0.239l0,0 l-0.026-0.266l0,0l-0.026-0.239v-0.026v-0.239l0,0l-0.026-0.266v-0.265l-0.028-0.24v-0.266v-0.266v-16.789v-0.08v-0.08v-13.602 v-0.08v-0.08V137.075c-19.95,5.419-37.325,17.108-49.865,32.836c-13.097,16.392-20.934,37.22-20.934,59.881 c0,16.152,3.985,31.375,11.025,44.711c7.279,13.815,17.8,25.61,30.579,34.431c0.956,0.557,1.593,1.621,1.593,2.789v42.639 c0,6.351,2.604,12.168,6.801,16.339c4.171,4.197,9.936,6.802,16.286,6.827h0.079H219.511z M226.045,292.621v84.906h26.407h0.293 c6.27-0.078,11.929-2.683,16.072-6.827c4.197-4.171,6.802-9.988,6.802-16.339v-42.639c0-1.036,0.505-2.046,1.435-2.683 c12.857-8.82,23.458-20.669,30.737-34.537c7.039-13.336,11.024-28.559,11.024-44.711c0-22.661-7.837-43.462-20.935-59.881 c-12.539-15.7-29.913-27.39-49.864-32.809v104.671v0.08v0.08v13.602v0.08v0.08v16.789c0,5.553-2.258,10.6-5.897,14.239 c-3.64,3.641-8.688,5.897-14.24,5.897H226.045z M252.453,384.036h-29.594h-0.081h-0.105h-26.328v14.452h6.536h0.105h49.175h0.079 h6.563v-14.452H252.453z M248.894,405.024h-42.64v14.425h6.536h0.105h29.357h0.079h6.563V405.024z M238.985,425.985h-22.848 v14.426h22.848V425.985z M280.854,364.325l2.63,2.63l-9.432,23.988l6.881,3.959l16.073-20.137l18.33,4.914l3.825,25.477h7.97 l3.826-25.477l18.357-4.914l16.046,20.137l6.88-3.959l-9.43-24.016l13.441-13.416l23.991,9.431l3.985-6.88l-20.166-16.072 l4.915-18.332l25.478-3.825v-7.97l-25.478-3.826l-4.915-18.357l20.166-16.046l-3.985-6.88l-23.991,9.431l-13.441-13.416 l9.43-24.016l-6.88-3.985l-16.046,20.138l-18.357-4.889l-3.826-25.478h-2.895c0.424,3.64,0.637,7.332,0.637,11.078 c0,16.152-3.984,31.375-11.025,44.712c-7.278,13.867-17.879,25.717-30.736,34.536c-0.93,0.638-1.436,1.648-1.436,2.684v42.639 C281.676,360.313,281.385,362.357,280.854,364.325z M297.962,93.24c0.902-1.566,2.896-2.098,4.463-1.194 c1.54,0.903,2.072,2.896,1.168,4.462l-15.435,26.754c-0.903,1.566-2.896,2.098-4.462,1.194c-1.541-0.903-2.073-2.896-1.197-4.462 L297.962,93.24z M356.274,149.163c1.54-0.903,3.534-0.372,4.438,1.169c0.902,1.567,0.372,3.561-1.196,4.463l-26.752,15.462 c-1.568,0.903-3.561,0.372-4.463-1.195c-0.904-1.54-0.373-3.56,1.196-4.437L356.274,149.163z M146.64,96.482 c-0.877-1.541-0.346-3.533,1.195-4.437c1.567-0.878,3.561-0.346,4.438,1.194l15.461,26.779c0.904,1.541,0.346,3.533-1.195,4.437 c-1.569,0.878-3.561,0.346-4.438-1.194L146.64,96.482z M90.717,154.795c-1.541-0.902-2.072-2.896-1.195-4.463 c0.902-1.541,2.896-2.072,4.462-1.169l26.753,15.462c1.567,0.877,2.099,2.896,1.195,4.437c-0.904,1.567-2.895,2.099-4.436,1.195 L90.717,154.795z M71.458,233.245c-1.808,0-3.27-1.46-3.27-3.241c0-1.805,1.462-3.268,3.27-3.268h30.896 c1.808,0,3.268,1.463,3.268,3.268c0,1.781-1.46,3.241-3.268,3.241H71.458z M104.054,485.999c-1.808,0-3.268-1.461-3.268-3.269 c0-1.779,1.46-3.268,3.268-3.268h234.501c1.808,0,3.268,1.488,3.268,3.268c0,1.808-1.46,3.269-3.268,3.269H104.054z M241.375,466.791c-1.806,0-3.267-1.461-3.267-3.269c0-1.779,1.461-3.267,3.267-3.267H403.67c1.779,0,3.268,1.487,3.268,3.267 c0,1.808-1.488,3.269-3.268,3.269H241.375z M420.273,466.791c-1.808,0-3.268-1.461-3.268-3.269c0-1.779,1.46-3.267,3.268-3.267 h20.297c1.779,0,3.241,1.487,3.241,3.267c0,1.808-1.462,3.269-3.241,3.269H420.273z M94.808,467.375 c-1.806,0-3.267-1.46-3.267-3.268c0-1.806,1.461-3.268,3.267-3.268h76.911c1.78,0,3.268,1.462,3.268,3.268 c0,1.808-1.488,3.268-3.268,3.268H94.808z M165.077,385.977c1.806,0,3.268,1.486,3.268,3.268c0,1.806-1.462,3.268-3.268,3.268 c-6.828,0-13.071-2.79-17.56-7.279c-4.491-4.516-7.307-10.733-7.307-17.561v-33.154c-10.653-7.625-19.446-17.693-25.582-29.356 c-6.191-11.742-9.725-25.132-9.725-39.292c0-1.807,1.488-3.268,3.269-3.268c1.806,0,3.268,1.461,3.268,3.268 c0,13.098,3.241,25.451,8.926,36.264c5.898,11.185,14.452,20.748,24.786,27.895c0.957,0.558,1.594,1.595,1.594,2.789v34.855 c0,5.021,2.072,9.617,5.394,12.938C155.459,383.931,160.028,385.977,165.077,385.977z M241.482,245.121H204.05v7.227h37.432 V245.121z" style="fill-rule:evenodd;clip-rule:evenodd;"/> </g> </g> <g id="Layer_1"/> </g>
</svg>