<svg width="32" height="32" viewBox="0 0 32 32" fill="none" xmlns="http://www.w3.org/2000/svg">
<g clip-path="url(#clip0_612_4968)">
<g clip-path="url(#clip1_612_4968)">
<path d="M28 15C27.7348 15 27.4804 15.1054 27.2929 15.2929C27.1054 15.4804 27 15.7348 27 16C27 16.2652 27.1054 16.5196 27.2929 16.7071C27.4804 16.8946 27.7348 17 28 17C28.2652 17 28.5196 16.8946 28.7071 16.7071C28.8946 16.5196 29 16.2652 29 16C29 15.7348 28.8946 15.4804 28.7071 15.2929C28.5196 15.1054 28.2652 15 28 15ZM28 21C27.7348 21 27.4804 21.1054 27.2929 21.2929C27.1054 21.4804 27 21.7348 27 22C27 22.2652 27.1054 22.5196 27.2929 22.7071C27.4804 22.8946 27.7348 23 28 23C28.2652 23 28.5196 22.8946 28.7071 22.7071C28.8946 22.5196 29 22.2652 29 22C29 21.7348 28.8946 21.4804 28.7071 21.2929C28.5196 21.1054 28.2652 21 28 21ZM28 18C27.7348 18 27.4804 18.1054 27.2929 18.2929C27.1054 18.4804 27 18.7348 27 19C27 19.2652 27.1054 19.5196 27.2929 19.7071C27.4804 19.8946 27.7348 20 28 20C28.2652 20 28.5196 19.8946 28.7071 19.7071C28.8946 19.5196 29 19.2652 29 19C29 18.7348 28.8946 18.4804 28.7071 18.2929C28.5196 18.1054 28.2652 18 28 18ZM28 9C27.7348 9 27.4804 9.10536 27.2929 9.29289C27.1054 9.48043 27 9.73478 27 10C27 10.2652 27.1054 10.5196 27.2929 10.7071C27.4804 10.8946 27.7348 11 28 11C28.2652 11 28.5196 10.8946 28.7071 10.7071C28.8946 10.5196 29 10.2652 29 10C29 9.73478 28.8946 9.48043 28.7071 9.29289C28.5196 9.10536 28.2652 9 28 9ZM28 12C27.7348 12 27.4804 12.1054 27.2929 12.2929C27.1054 12.4804 27 12.7348 27 13C27 13.2652 27.1054 13.5196 27.2929 13.7071C27.4804 13.8946 27.7348 14 28 14C28.2652 14 28.5196 13.8946 28.7071 13.7071C28.8946 13.5196 29 13.2652 29 13C29 12.7348 28.8946 12.4804 28.7071 12.2929C28.5196 12.1054 28.2652 12 28 12ZM22 3C21.7348 3 21.4804 3.10536 21.2929 3.29289C21.1054 3.48043 21 3.73478 21 4C21 4.26522 21.1054 4.51957 21.2929 4.70711C21.4804 4.89464 21.7348 5 22 5C22.2652 5 22.5196 4.89464 22.7071 4.70711C22.8946 4.51957 23 4.26522 23 4C23 3.73478 22.8946 3.48043 22.7071 3.29289C22.5196 3.10536 22.2652 3 22 3ZM4 3C3.73478 3 3.48043 3.10536 3.29289 3.29289C3.10536 3.48043 3 3.73478 3 4C3 4.26522 3.10536 4.51957 3.29289 4.70711C3.48043 4.89464 3.73478 5 4 5C4.26522 5 4.51957 4.89464 4.70711 4.70711C4.89464 4.51957 5 4.26522 5 4C5 3.73478 4.89464 3.48043 4.70711 3.29289C4.51957 3.10536 4.26522 3 4 3ZM10 3C9.73478 3 9.48043 3.10536 9.29289 3.29289C9.10536 3.48043 9 3.73478 9 4C9 4.26522 9.10536 4.51957 9.29289 4.70711C9.48043 4.89464 9.73478 5 10 5C10.2652 5 10.5196 4.89464 10.7071 4.70711C10.8946 4.51957 11 4.26522 11 4C11 3.73478 10.8946 3.48043 10.7071 3.29289C10.5196 3.10536 10.2652 3 10 3ZM16 3C15.7348 3 15.4804 3.10536 15.2929 3.29289C15.1054 3.48043 15 3.73478 15 4C15 4.26522 15.1054 4.51957 15.2929 4.70711C15.4804 4.89464 15.7348 5 16 5C16.2652 5 16.5196 4.89464 16.7071 4.70711C16.8946 4.51957 17 4.26522 17 4C17 3.73478 16.8946 3.48043 16.7071 3.29289C16.5196 3.10536 16.2652 3 16 3ZM28 3C27.7348 3 27.4804 3.10536 27.2929 3.29289C27.1054 3.48043 27 3.73478 27 4C27 4.26522 27.1054 4.51957 27.2929 4.70711C27.4804 4.89464 27.7348 5 28 5C28.2652 5 28.5196 4.89464 28.7071 4.70711C28.8946 4.51957 29 4.26522 29 4C29 3.73478 28.8946 3.48043 28.7071 3.29289C28.5196 3.10536 28.2652 3 28 3ZM22 27C21.7348 27 21.4804 27.1054 21.2929 27.2929C21.1054 27.4804 21 27.7348 21 28C21 28.2652 21.1054 28.5196 21.2929 28.7071C21.4804 28.8946 21.7348 29 22 29C22.2652 29 22.5196 28.8946 22.7071 28.7071C22.8946 28.5196 23 28.2652 23 28C23 27.7348 22.8946 27.4804 22.7071 27.2929C22.5196 27.1054 22.2652 27 22 27ZM4 27C3.73478 27 3.48043 27.1054 3.29289 27.2929C3.10536 27.4804 3 27.7348 3 28C3 28.2652 3.10536 28.5196 3.29289 28.7071C3.48043 28.8946 3.73478 29 4 29C4.26522 29 4.51957 28.8946 4.70711 28.7071C4.89464 28.5196 5 28.2652 5 28C5 27.7348 4.89464 27.4804 4.70711 27.2929C4.51957 27.1054 4.26522 27 4 27ZM10 27C9.73478 27 9.48043 27.1054 9.29289 27.2929C9.10536 27.4804 9 27.7348 9 28C9 28.2652 9.10536 28.5196 9.29289 28.7071C9.48043 28.8946 9.73478 29 10 29C10.2652 29 10.5196 28.8946 10.7071 28.7071C10.8946 28.5196 11 28.2652 11 28C11 27.7348 10.8946 27.4804 10.7071 27.2929C10.5196 27.1054 10.2652 27 10 27ZM16 27C15.7348 27 15.4804 27.1054 15.2929 27.2929C15.1054 27.4804 15 27.7348 15 28C15 28.2652 15.1054 28.5196 15.2929 28.7071C15.4804 28.8946 15.7348 29 16 29C16.2652 29 16.5196 28.8946 16.7071 28.7071C16.8946 28.5196 17 28.2652 17 28C17 27.7348 16.8946 27.4804 16.7071 27.2929C16.5196 27.1054 16.2652 27 16 27ZM7 27C6.73478 27 6.48043 27.1054 6.29289 27.2929C6.10536 27.4804 6 27.7348 6 28C6 28.2652 6.10536 28.5196 6.29289 28.7071C6.48043 28.8946 6.73478 29 7 29C7.26522 29 7.51957 28.8946 7.70711 28.7071C7.89464 28.5196 8 28.2652 8 28C8 27.7348 7.89464 27.4804 7.70711 27.2929C7.51957 27.1054 7.26522 27 7 27ZM13 27C12.7348 27 12.4804 27.1054 12.2929 27.2929C12.1054 27.4804 12 27.7348 12 28C12 28.2652 12.1054 28.5196 12.2929 28.7071C12.4804 28.8946 12.7348 29 13 29C13.2652 29 13.5196 28.8946 13.7071 28.7071C13.8946 28.5196 14 28.2652 14 28C14 27.7348 13.8946 27.4804 13.7071 27.2929C13.5196 27.1054 13.2652 27 13 27ZM19 27C18.7348 27 18.4804 27.1054 18.2929 27.2929C18.1054 27.4804 18 27.7348 18 28C18 28.2652 18.1054 28.5196 18.2929 28.7071C18.4804 28.8946 18.7348 29 19 29C19.2652 29 19.5196 28.8946 19.7071 28.7071C19.8946 28.5196 20 28.2652 20 28C20 27.7348 19.8946 27.4804 19.7071 27.2929C19.5196 27.1054 19.2652 27 19 27ZM22 21C21.7348 21 21.4804 21.1054 21.2929 21.2929C21.1054 21.4804 21 21.7348 21 22C21 22.2652 21.1054 22.5196 21.2929 22.7071C21.4804 22.8946 21.7348 23 22 23C22.2652 23 22.5196 22.8946 22.7071 22.7071C22.8946 22.5196 23 22.2652 23 22C23 21.7348 22.8946 21.4804 22.7071 21.2929C22.5196 21.1054 22.2652 21 22 21ZM10 21C9.73478 21 9.48043 21.1054 9.29289 21.2929C9.10536 21.4804 9 21.7348 9 22C9 22.2652 9.10536 22.5196 9.29289 22.7071C9.48043 22.8946 9.73478 23 10 23C10.2652 23 10.5196 22.8946 10.7071 22.7071C10.8946 22.5196 11 22.2652 11 22C11 21.7348 10.8946 21.4804 10.7071 21.2929C10.5196 21.1054 10.2652 21 10 21ZM16 21C15.7348 21 15.4804 21.1054 15.2929 21.2929C15.1054 21.4804 15 21.7348 15 22C15 22.2652 15.1054 22.5196 15.2929 22.7071C15.4804 22.8946 15.7348 23 16 23C16.2652 23 16.5196 22.8946 16.7071 22.7071C16.8946 22.5196 17 22.2652 17 22C17 21.7348 16.8946 21.4804 16.7071 21.2929C16.5196 21.1054 16.2652 21 16 21ZM13 21C12.7348 21 12.4804 21.1054 12.2929 21.2929C12.1054 21.4804 12 21.7348 12 22C12 22.2652 12.1054 22.5196 12.2929 22.7071C12.4804 22.8946 12.7348 23 13 23C13.2652 23 13.5196 22.8946 13.7071 22.7071C13.8946 22.5196 14 22.2652 14 22C14 21.7348 13.8946 21.4804 13.7071 21.2929C13.5196 21.1054 13.2652 21 13 21ZM19 21C18.7348 21 18.4804 21.1054 18.2929 21.2929C18.1054 21.4804 18 21.7348 18 22C18 22.2652 18.1054 22.5196 18.2929 22.7071C18.4804 22.8946 18.7348 23 19 23C19.2652 23 19.5196 22.8946 19.7071 22.7071C19.8946 22.5196 20 22.2652 20 22C20 21.7348 19.8946 21.4804 19.7071 21.2929C19.5196 21.1054 19.2652 21 19 21ZM22 12C21.7348 12 21.4804 12.1054 21.2929 12.2929C21.1054 12.4804 21 12.7348 21 13C21 13.2652 21.1054 13.5196 21.2929 13.7071C21.4804 13.8946 21.7348 14 22 14C22.2652 14 22.5196 13.8946 22.7071 13.7071C22.8946 13.5196 23 13.2652 23 13C23 12.7348 22.8946 12.4804 22.7071 12.2929C22.5196 12.1054 22.2652 12 22 12ZM10 12C9.73478 12 9.48043 12.1054 9.29289 12.2929C9.10536 12.4804 9 12.7348 9 13C9 13.2652 9.10536 13.5196 9.29289 13.7071C9.48043 13.8946 9.73478 14 10 14C10.2652 14 10.5196 13.8946 10.7071 13.7071C10.8946 13.5196 11 13.2652 11 13C11 12.7348 10.8946 12.4804 10.7071 12.2929C10.5196 12.1054 10.2652 12 10 12ZM16 12C15.7348 12 15.4804 12.1054 15.2929 12.2929C15.1054 12.4804 15 12.7348 15 13C15 13.2652 15.1054 13.5196 15.2929 13.7071C15.4804 13.8946 15.7348 14 16 14C16.2652 14 16.5196 13.8946 16.7071 13.7071C16.8946 13.5196 17 13.2652 17 13C17 12.7348 16.8946 12.4804 16.7071 12.2929C16.5196 12.1054 16.2652 12 16 12ZM13 12C12.7348 12 12.4804 12.1054 12.2929 12.2929C12.1054 12.4804 12 12.7348 12 13C12 13.2652 12.1054 13.5196 12.2929 13.7071C12.4804 13.8946 12.7348 14 13 14C13.2652 14 13.5196 13.8946 13.7071 13.7071C13.8946 13.5196 14 13.2652 14 13C14 12.7348 13.8946 12.4804 13.7071 12.2929C13.5196 12.1054 13.2652 12 13 12ZM10 15C9.73478 15 9.48043 15.1054 9.29289 15.2929C9.10536 15.4804 9 15.7348 9 16C9 16.2652 9.10536 16.5196 9.29289 16.7071C9.48043 16.8946 9.73478 17 10 17C10.2652 17 10.5196 16.8946 10.7071 16.7071C10.8946 16.5196 11 16.2652 11 16C11 15.7348 10.8946 15.4804 10.7071 15.2929C10.5196 15.1054 10.2652 15 10 15ZM16 15C15.7348 15 15.4804 15.1054 15.2929 15.2929C15.1054 15.4804 15 15.7348 15 16C15 16.2652 15.1054 16.5196 15.2929 16.7071C15.4804 16.8946 15.7348 17 16 17C16.2652 17 16.5196 16.8946 16.7071 16.7071C16.8946 16.5196 17 16.2652 17 16C17 15.7348 16.8946 15.4804 16.7071 15.2929C16.5196 15.1054 16.2652 15 16 15ZM13 15C12.7348 15 12.4804 15.1054 12.2929 15.2929C12.1054 15.4804 12 15.7348 12 16C12 16.2652 12.1054 16.5196 12.2929 16.7071C12.4804 16.8946 12.7348 17 13 17C13.2652 17 13.5196 16.8946 13.7071 16.7071C13.8946 16.5196 14 16.2652 14 16C14 15.7348 13.8946 15.4804 13.7071 15.2929C13.5196 15.1054 13.2652 15 13 15ZM19 12C18.7348 12 18.4804 12.1054 18.2929 12.2929C18.1054 12.4804 18 12.7348 18 13C18 13.2652 18.1054 13.5196 18.2929 13.7071C18.4804 13.8946 18.7348 14 19 14C19.2652 14 19.5196 13.8946 19.7071 13.7071C19.8946 13.5196 20 13.2652 20 13C20 12.7348 19.8946 12.4804 19.7071 12.2929C19.5196 12.1054 19.2652 12 19 12ZM10 9C9.73478 9 9.48043 9.10536 9.29289 9.29289C9.10536 9.48043 9 9.73478 9 10C9 10.2652 9.10536 10.5196 9.29289 10.7071C9.48043 10.8946 9.73478 11 10 11C10.2652 11 10.5196 10.8946 10.7071 10.7071C10.8946 10.5196 11 10.2652 11 10C11 9.73478 10.8946 9.48043 10.7071 9.29289C10.5196 9.10536 10.2652 9 10 9ZM16 9C15.7348 9 15.4804 9.10536 15.2929 9.29289C15.1054 9.48043 15 9.73478 15 10C15 10.2652 15.1054 10.5196 15.2929 10.7071C15.4804 10.8946 15.7348 11 16 11C16.2652 11 16.5196 10.8946 16.7071 10.7071C16.8946 10.5196 17 10.2652 17 10C17 9.73478 16.8946 9.48043 16.7071 9.29289C16.5196 9.10536 16.2652 9 16 9ZM13 9C12.7348 9 12.4804 9.10536 12.2929 9.29289C12.1054 9.48043 12 9.73478 12 10C12 10.2652 12.1054 10.5196 12.2929 10.7071C12.4804 10.8946 12.7348 11 13 11C13.2652 11 13.5196 10.8946 13.7071 10.7071C13.8946 10.5196 14 10.2652 14 10C14 9.73478 13.8946 9.48043 13.7071 9.29289C13.5196 9.10536 13.2652 9 13 9ZM19 9C18.7348 9 18.4804 9.10536 18.2929 9.29289C18.1054 9.48043 18 9.73478 18 10C18 10.2652 18.1054 10.5196 18.2929 10.7071C18.4804 10.8946 18.7348 11 19 11C19.2652 11 19.5196 10.8946 19.7071 10.7071C19.8946 10.5196 20 10.2652 20 10C20 9.73478 19.8946 9.48043 19.7071 9.29289C19.5196 9.10536 19.2652 9 19 9ZM28 27C27.7348 27 27.4804 27.1054 27.2929 27.2929C27.1054 27.4804 27 27.7348 27 28C27 28.2652 27.1054 28.5196 27.2929 28.7071C27.4804 28.8946 27.7348 29 28 29C28.2652 29 28.5196 28.8946 28.7071 28.7071C28.8946 28.5196 29 28.2652 29 28C29 27.7348 28.8946 27.4804 28.7071 27.2929C28.5196 27.1054 28.2652 27 28 27ZM28 24C27.7348 24 27.4804 24.1054 27.2929 24.2929C27.1054 24.4804 27 24.7348 27 25C27 25.2652 27.1054 25.5196 27.2929 25.7071C27.4804 25.8946 27.7348 26 28 26C28.2652 26 28.5196 25.8946 28.7071 25.7071C28.8946 25.5196 29 25.2652 29 25C29 24.7348 28.8946 24.4804 28.7071 24.2929C28.5196 24.1054 28.2652 24 28 24ZM4 15C3.73478 15 3.48043 15.1054 3.29289 15.2929C3.10536 15.4804 3 15.7348 3 16C3 16.2652 3.10536 16.5196 3.29289 16.7071C3.48043 16.8946 3.73478 17 4 17C4.26522 17 4.51957 16.8946 4.70711 16.7071C4.89464 16.5196 5 16.2652 5 16C5 15.7348 4.89464 15.4804 4.70711 15.2929C4.51957 15.1054 4.26522 15 4 15ZM4 21C3.73478 21 3.48043 21.1054 3.29289 21.2929C3.10536 21.4804 3 21.7348 3 22C3 22.2652 3.10536 22.5196 3.29289 22.7071C3.48043 22.8946 3.73478 23 4 23C4.26522 23 4.51957 22.8946 4.70711 22.7071C4.89464 22.5196 5 22.2652 5 22C5 21.7348 4.89464 21.4804 4.70711 21.2929C4.51957 21.1054 4.26522 21 4 21ZM4 18C3.73478 18 3.48043 18.1054 3.29289 18.2929C3.10536 18.4804 3 18.7348 3 19C3 19.2652 3.10536 19.5196 3.29289 19.7071C3.48043 19.8946 3.73478 20 4 20C4.26522 20 4.51957 19.8946 4.70711 19.7071C4.89464 19.5196 5 19.2652 5 19C5 18.7348 4.89464 18.4804 4.70711 18.2929C4.51957 18.1054 4.26522 18 4 18ZM4 9C3.73478 9 3.48043 9.10536 3.29289 9.29289C3.10536 9.48043 3 9.73478 3 10C3 10.2652 3.10536 10.5196 3.29289 10.7071C3.48043 10.8946 3.73478 11 4 11C4.26522 11 4.51957 10.8946 4.70711 10.7071C4.89464 10.5196 5 10.2652 5 10C5 9.73478 4.89464 9.48043 4.70711 9.29289C4.51957 9.10536 4.26522 9 4 9ZM28 6C27.7348 6 27.4804 6.10536 27.2929 6.29289C27.1054 6.48043 27 6.73478 27 7C27 7.26522 27.1054 7.51957 27.2929 7.70711C27.4804 7.89464 27.7348 8 28 8C28.2652 8 28.5196 7.89464 28.7071 7.70711C28.8946 7.51957 29 7.26522 29 7C29 6.73478 28.8946 6.48043 28.7071 6.29289C28.5196 6.10536 28.2652 6 28 6ZM4 6C3.73478 6 3.48043 6.10536 3.29289 6.29289C3.10536 6.48043 3 6.73478 3 7C3 7.26522 3.10536 7.51957 3.29289 7.70711C3.48043 7.89464 3.73478 8 4 8C4.26522 8 4.51957 7.89464 4.70711 7.70711C4.89464 7.51957 5 7.26522 5 7C5 6.73478 4.89464 6.48043 4.70711 6.29289C4.51957 6.10536 4.26522 6 4 6ZM4 12C3.73478 12 3.48043 12.1054 3.29289 12.2929C3.10536 12.4804 3 12.7348 3 13C3 13.2652 3.10536 13.5196 3.29289 13.7071C3.48043 13.8946 3.73478 14 4 14C4.26522 14 4.51957 13.8946 4.70711 13.7071C4.89464 13.5196 5 13.2652 5 13C5 12.7348 4.89464 12.4804 4.70711 12.2929C4.51957 12.1054 4.26522 12 4 12ZM4 24C3.73478 24 3.48043 24.1054 3.29289 24.2929C3.10536 24.4804 3 24.7348 3 25C3 25.2652 3.10536 25.5196 3.29289 25.7071C3.48043 25.8946 3.73478 26 4 26C4.26522 26 4.51957 25.8946 4.70711 25.7071C4.89464 25.5196 5 25.2652 5 25C5 24.7348 4.89464 24.4804 4.70711 24.2929C4.51957 24.1054 4.26522 24 4 24ZM25 27C24.7348 27 24.4804 27.1054 24.2929 27.2929C24.1054 27.4804 24 27.7348 24 28C24 28.2652 24.1054 28.5196 24.2929 28.7071C24.4804 28.8946 24.7348 29 25 29C25.2652 29 25.5196 28.8946 25.7071 28.7071C25.8946 28.5196 26 28.2652 26 28C26 27.7348 25.8946 27.4804 25.7071 27.2929C25.5196 27.1054 25.2652 27 25 27Z" fill="#0072FF"/>
</g>
</g>
<defs>
<clipPath id="clip0_612_4968">
<rect width="32" height="32" fill="white"/>
</clipPath>
<clipPath id="clip1_612_4968">
<rect width="32" height="32" fill="white"/>
</clipPath>
</defs>
</svg>
