<svg width="206" height="63" viewBox="0 0 206 63" fill="none" xmlns="http://www.w3.org/2000/svg">
<path d="M19.2132 22.3565L17.7889 22.3262C17.607 21.7807 17.3242 21.2049 16.9403 20.5988C16.5565 19.9725 16.0514 19.3967 15.4251 18.8714C14.819 18.3664 14.0917 17.9421 13.2432 17.5986C12.4148 17.235 11.4552 17.0532 10.3642 17.0532C9.17223 17.0532 8.09136 17.3057 7.12161 17.8108C6.17206 18.3159 5.34373 19.0028 4.63662 19.8715C3.94972 20.7604 3.41433 21.8009 3.03047 22.9929C2.66682 24.1849 2.48499 25.4779 2.48499 26.8719C2.48499 28.2861 2.66682 29.5993 3.03047 30.8115C3.41433 32.0035 3.94972 33.044 4.63662 33.9329C5.32353 34.8016 6.15186 35.4885 7.12161 35.9936C8.11157 36.4785 9.20254 36.7209 10.3945 36.7209C11.4855 36.7209 12.4552 36.5492 13.3038 36.2057C14.1523 35.8421 14.8695 35.3976 15.4554 34.8723C16.0615 34.3471 16.5464 33.7814 16.91 33.1753C17.2737 32.549 17.5363 31.9631 17.698 31.4176L19.0314 31.4479C18.8899 32.0136 18.6172 32.6803 18.2131 33.448C17.8293 34.1955 17.2939 34.9026 16.607 35.5693C15.8999 36.2563 15.0311 36.832 14.0008 37.2967C12.9906 37.7614 11.7885 37.9937 10.3945 37.9937C8.9601 37.9937 7.6671 37.7109 6.51552 37.1452C5.36394 36.5997 4.38408 35.832 3.57596 34.842C2.74763 33.8723 2.11123 32.7106 1.66676 31.357C1.24249 29.9832 1.03036 28.4881 1.03036 26.8719C1.03036 25.2758 1.24249 23.801 1.66676 22.4474C2.11123 21.0938 2.74763 19.922 3.57596 18.9321C4.38408 17.9623 5.36394 17.1946 6.51552 16.6289C7.6671 16.0632 8.9601 15.7804 10.3945 15.7804C11.7481 15.7804 12.9401 16.0228 13.9705 16.5077C15.0008 16.9723 15.8797 17.538 16.607 18.2047C17.3343 18.8916 17.9101 19.619 18.3344 20.3867C18.7586 21.1342 19.0516 21.7908 19.2132 22.3565ZM34.4063 22.0837L26.8604 39.5696C26.6584 40.0949 26.4563 40.5393 26.2543 40.903C26.0725 41.2666 25.83 41.5697 25.527 41.8121C25.2644 42.0142 25.0017 42.1354 24.7391 42.1758C24.4764 42.2364 24.1128 42.2566 23.6481 42.2364H22.9814V41.1151H23.8602C24.3249 41.0949 24.6684 40.9333 24.8906 40.6302C25.1128 40.3272 25.3048 39.9736 25.4664 39.5696L26.6786 36.5694L20.5267 22.0837H21.951L27.4665 34.8723L33.0123 22.0837H34.4063ZM44.1729 21.5383C45.2235 21.5383 46.173 21.7504 47.0216 22.1747C47.8701 22.5989 48.5974 23.1848 49.2035 23.9323C49.7894 24.6596 50.244 25.5284 50.5672 26.5385C50.9107 27.5285 51.0824 28.5993 51.0824 29.7508C51.0824 30.9024 50.9107 31.9833 50.5672 32.9934C50.244 33.9834 49.7793 34.8521 49.1732 35.5997C48.5671 36.3472 47.8398 36.9331 46.9913 37.3573C46.1427 37.8018 45.2033 38.024 44.1729 38.024C42.9405 38.024 41.7991 37.7109 40.7485 37.0846C39.6979 36.4583 38.91 35.5896 38.3847 34.4784V37.4482H37.0513V16.3258H38.3847L38.415 25.1445C38.9403 23.9525 39.7181 23.0535 40.7485 22.4474C41.7991 21.8413 42.9405 21.5383 44.1729 21.5383ZM43.9608 36.8118C44.8295 36.8118 45.6074 36.63 46.2943 36.2664C47.0014 35.9027 47.6075 35.3976 48.1125 34.7511C48.5974 34.1046 48.9712 33.3571 49.2338 32.5086C49.5167 31.6398 49.6581 30.7206 49.6581 29.7508C49.6581 28.7811 49.5167 27.8719 49.2338 27.0234C48.9712 26.1749 48.5974 25.4274 48.1125 24.7809C47.6075 24.1546 47.0014 23.6596 46.2943 23.2959C45.6074 22.9121 44.8295 22.7201 43.9608 22.7201C43.0921 22.7201 42.3142 22.9121 41.6273 23.2959C40.9404 23.6596 40.3545 24.1546 39.8697 24.7809C39.3848 25.4274 39.011 26.1749 38.7484 27.0234C38.4857 27.8719 38.3544 28.7811 38.3544 29.7508C38.3544 30.7206 38.4857 31.6398 38.7484 32.5086C39.011 33.3571 39.3848 34.1046 39.8697 34.7511C40.3545 35.3976 40.9404 35.9027 41.6273 36.2664C42.3142 36.63 43.0921 36.8118 43.9608 36.8118ZM67.3797 29.8114L54.3184 29.8418C54.3184 30.8923 54.4901 31.8419 54.8336 32.6904C55.1972 33.5389 55.6518 34.2662 56.1973 34.8723C56.763 35.4784 57.3893 35.9431 58.0762 36.2664C58.7631 36.6098 59.4601 36.7815 60.1672 36.7815C61.6218 36.7815 62.7633 36.4583 63.5916 35.8118C64.4402 35.1451 65.016 34.3471 65.319 33.4177L66.7433 33.448C66.5615 33.9733 66.2888 34.5087 65.9251 35.0542C65.5816 35.5997 65.1473 36.0845 64.622 36.5088C64.0765 36.9533 63.43 37.3169 62.6825 37.5998C61.9552 37.8826 61.1167 38.0139 60.1672 37.9937C59.056 37.9937 58.056 37.7715 57.167 37.327C56.2781 36.9028 55.5306 36.3068 54.9245 35.539C54.2982 34.7915 53.8133 33.9228 53.4699 32.9328C53.1466 31.9227 52.985 30.8418 52.985 29.6902C52.985 28.5791 53.1466 27.5285 53.4699 26.5385C53.8133 25.5284 54.2982 24.6495 54.9245 23.902C55.5306 23.1545 56.2781 22.5585 57.167 22.114C58.056 21.6696 59.056 21.4473 60.1672 21.4473C61.1572 21.4473 62.0966 21.6494 62.9855 22.0534C63.8745 22.4373 64.6523 22.9929 65.319 23.7202C65.9655 24.4475 66.4706 25.3263 66.8342 26.3567C67.2181 27.3871 67.3999 28.5387 67.3797 29.8114ZM54.379 28.7205H65.9857C65.9655 27.8113 65.7837 26.983 65.4402 26.2355C65.117 25.488 64.6826 24.8516 64.1371 24.3263C63.5916 23.801 62.9754 23.3868 62.2885 23.0838C61.6016 22.7808 60.8945 22.6292 60.1672 22.6292C59.3793 22.6292 58.6318 22.7909 57.9246 23.1141C57.2377 23.4172 56.6316 23.8515 56.1064 24.4172C55.5811 24.9627 55.1568 25.6092 54.8336 26.3567C54.5305 27.084 54.379 27.8719 54.379 28.7205ZM77.7219 21.5686V22.8111C77.3179 22.8111 76.8027 22.8515 76.1764 22.9323C75.5501 22.9929 74.9642 23.205 74.4187 23.5687C73.55 24.1748 72.8833 24.8011 72.4186 25.4476C71.9741 26.0941 71.7519 27.0335 71.7519 28.2659V37.3876H70.4185V22.114H71.7519V24.5687C72.0953 24.1849 72.4893 23.7707 72.9338 23.3262C73.3984 22.8818 73.8833 22.5282 74.3884 22.2656C74.9339 21.9827 75.5299 21.7908 76.1764 21.6898C76.8431 21.5888 77.3583 21.5484 77.7219 21.5686ZM91.3728 26.9325C92.6254 27.3972 93.6153 28.1144 94.3426 29.0841C95.07 30.0539 95.373 31.1449 95.2518 32.357C95.1508 33.0844 94.9083 33.8016 94.5245 34.5087C94.1608 35.1956 93.6456 35.8017 92.9789 36.327C92.3122 36.8522 91.494 37.2765 90.5243 37.5998C89.5747 37.923 88.4938 38.0846 87.2816 38.0846C85.8876 38.0846 84.6653 37.8927 83.6148 37.5089C82.5844 37.125 81.7157 36.5997 81.0086 35.933C80.3217 35.2663 79.8166 34.4885 79.4933 33.5995C79.1701 32.7106 79.0388 31.7611 79.0994 30.7509H80.3419C80.3015 31.8015 80.4631 32.7106 80.8267 33.4783C81.1904 34.2258 81.6955 34.8521 82.342 35.3572C82.9683 35.8623 83.7158 36.226 84.5845 36.4482C85.4533 36.6906 86.3725 36.8118 87.3423 36.8118C88.0898 36.8118 88.8373 36.7209 89.5848 36.5391C90.3323 36.3573 91.0192 36.0845 91.6455 35.7209C92.2516 35.3572 92.7567 34.9127 93.1608 34.3875C93.585 33.8622 93.8477 33.246 93.9487 32.5389C94.0699 31.5085 93.8174 30.6095 93.1911 29.8418C92.5648 29.0538 91.7465 28.4477 90.7364 28.0235C90.2515 27.8416 89.7262 27.68 89.1605 27.5386C88.5949 27.3972 88.0292 27.2558 87.4635 27.1143C86.8776 26.9931 86.3018 26.8719 85.7361 26.7507C85.1906 26.6295 84.6754 26.488 84.1906 26.3264C82.837 25.9627 81.7359 25.3466 80.8873 24.4778C80.059 23.6091 79.7055 22.508 79.8267 21.1746C79.8671 20.5281 80.0388 19.8715 80.3419 19.2048C80.6449 18.5381 81.0894 17.9421 81.6753 17.4168C82.2814 16.8915 83.0289 16.4572 83.9178 16.1137C84.827 15.7703 85.9078 15.5985 87.1604 15.5985C88.5746 15.5985 89.7666 15.8511 90.7364 16.3562C91.7263 16.841 92.5143 17.4269 93.1002 18.1138C93.6658 18.8007 94.0598 19.5179 94.282 20.2655C94.5245 21.013 94.6255 21.6494 94.5851 22.1747H93.282C93.282 21.4675 93.1204 20.7907 92.7971 20.1442C92.4941 19.4977 92.0698 18.9321 91.5243 18.4472C90.9586 17.9421 90.302 17.5481 89.5545 17.2653C88.807 16.9622 88.009 16.8107 87.1604 16.8107C85.5038 16.8107 84.1098 17.2047 82.9784 17.9926C81.847 18.7805 81.2409 19.8412 81.1601 21.1746C81.1197 21.8413 81.2005 22.407 81.4025 22.8717C81.6248 23.3161 81.9076 23.7 82.2511 24.0232C82.6147 24.3465 83.0188 24.6091 83.4632 24.8112C83.9077 25.0132 84.3421 25.1849 84.7664 25.3263C85.13 25.4476 85.5644 25.5587 86.0695 25.6597C86.5745 25.7607 87.12 25.8718 87.7059 25.9931C88.2918 26.1143 88.8979 26.2557 89.5242 26.4173C90.1505 26.5587 90.7667 26.7305 91.3728 26.9325ZM111.195 37.4785L109.831 37.4482C109.751 37.327 109.67 36.9836 109.589 36.4179C109.508 35.8724 109.468 35.3269 109.468 34.7814C108.801 35.5289 107.862 36.226 106.649 36.8725C105.437 37.519 104.185 37.8826 102.892 37.9634C101.275 38.0644 99.9016 37.7614 98.7702 37.0543C97.659 36.3674 97.0529 35.3875 96.9519 34.1147C96.8711 32.9025 97.1843 31.8924 97.8914 31.0842C98.6187 30.2761 99.5076 29.7205 100.558 29.4175C101.003 29.2963 101.488 29.2054 102.013 29.1447C102.558 29.0639 103.114 28.9932 103.68 28.9326C104.225 28.872 104.76 28.8114 105.286 28.7508C105.831 28.6902 106.336 28.6195 106.801 28.5387C107.043 28.4982 107.316 28.4275 107.619 28.3265C107.922 28.2255 108.215 28.0942 108.498 27.9326C108.761 27.7709 108.983 27.5689 109.165 27.3265C109.367 27.084 109.468 26.7911 109.468 26.4476C109.468 25.4779 109.023 24.6293 108.134 23.902C107.245 23.1545 105.993 22.7808 104.377 22.7808C103.649 22.7808 102.962 22.8717 102.316 23.0535C101.69 23.2353 101.134 23.4879 100.649 23.8111C100.164 24.1344 99.7804 24.5384 99.4975 25.0233C99.2349 25.488 99.1137 26.0032 99.1339 26.5688H97.8611C97.8005 25.8819 97.9318 25.2354 98.255 24.6293C98.5985 24.003 99.0632 23.4677 99.6491 23.0232C100.235 22.5585 100.932 22.1949 101.74 21.9322C102.568 21.6696 103.447 21.5383 104.377 21.5383C105.266 21.5383 106.104 21.6595 106.892 21.9019C107.68 22.1241 108.377 22.4474 108.983 22.8717C109.569 23.3161 110.033 23.8515 110.377 24.4778C110.72 25.1041 110.892 25.8213 110.892 26.6295V34.9633C110.892 35.5896 110.943 36.1653 111.044 36.6906C111.145 37.2159 111.195 37.4785 111.195 37.4785ZM109.468 32.357V28.569C109.145 28.8316 108.791 29.0336 108.407 29.1751C108.043 29.3165 107.71 29.4175 107.407 29.4781C107.084 29.5589 106.649 29.6397 106.104 29.7205C105.558 29.7811 105.003 29.8519 104.437 29.9327C103.851 29.9933 103.306 30.0539 102.801 30.1145C102.316 30.1751 101.962 30.2256 101.74 30.266C100.528 30.5287 99.639 31.0034 99.0733 31.6903C98.5278 32.3773 98.2651 33.0945 98.2853 33.842C98.2853 34.8723 98.75 35.6401 99.6794 36.1451C100.609 36.6502 101.77 36.8421 103.164 36.7209C103.75 36.6805 104.407 36.529 105.134 36.2664C105.862 36.0239 106.548 35.7007 107.195 35.2966C107.821 34.8925 108.357 34.438 108.801 33.9329C109.246 33.4278 109.468 32.9025 109.468 32.357ZM127.327 37.3876H125.963V27.3871C125.963 25.9931 125.529 24.8819 124.66 24.0536C123.812 23.205 122.721 22.7808 121.387 22.7808C120.559 22.7808 119.801 22.9323 119.114 23.2353C118.427 23.5384 117.831 23.9222 117.326 24.3869C116.821 24.8314 116.427 25.3365 116.145 25.9021C115.882 26.4476 115.751 26.9628 115.751 27.4477V37.3876H114.417V22.114H115.751L115.781 24.5081C116.326 23.6596 117.094 22.9525 118.084 22.3868C119.094 21.8211 120.327 21.5383 121.781 21.5383C122.549 21.5383 123.266 21.6797 123.933 21.9625C124.62 22.2454 125.216 22.6292 125.721 23.1141C126.206 23.6192 126.59 24.2152 126.872 24.9021C127.175 25.5688 127.327 26.3062 127.327 27.1143V37.3876ZM144.146 37.4785H142.782L142.812 34.3269C142.267 35.438 141.459 36.327 140.388 36.9937C139.317 37.6806 138.166 38.024 136.933 38.024C135.883 38.024 134.933 37.8018 134.085 37.3573C133.236 36.9331 132.509 36.3472 131.903 35.5997C131.317 34.8521 130.862 33.9834 130.539 32.9934C130.216 31.9833 130.054 30.9024 130.054 29.7508C130.054 28.5993 130.216 27.5285 130.539 26.5385C130.862 25.5284 131.317 24.6596 131.903 23.9323C132.509 23.1848 133.236 22.5989 134.085 22.1747C134.933 21.7504 135.883 21.5383 136.933 21.5383C138.166 21.5383 139.297 21.8615 140.327 22.508C141.358 23.1545 142.166 24.003 142.752 25.0536V16.3258H144.146V37.4785ZM137.145 36.8118C137.994 36.8118 138.762 36.63 139.449 36.2664C140.156 35.9027 140.752 35.3976 141.237 34.7511C141.721 34.1046 142.095 33.3571 142.358 32.5086C142.641 31.6398 142.782 30.7206 142.782 29.7508C142.782 28.7811 142.641 27.8719 142.358 27.0234C142.095 26.1749 141.721 25.4274 141.237 24.7809C140.752 24.1546 140.156 23.6596 139.449 23.2959C138.762 22.9121 137.994 22.7201 137.145 22.7201C136.257 22.7201 135.459 22.9121 134.751 23.2959C134.064 23.6596 133.479 24.1546 132.994 24.7809C132.509 25.4274 132.135 26.1749 131.872 27.0234C131.63 27.8719 131.509 28.7811 131.509 29.7508C131.509 30.7206 131.63 31.6398 131.872 32.5086C132.135 33.3571 132.509 34.1046 132.994 34.7511C133.479 35.3976 134.064 35.9027 134.751 36.2664C135.459 36.63 136.257 36.8118 137.145 36.8118ZM167.656 22.0534L162.747 37.4179H161.383L157.141 24.1748L152.716 37.4179H151.413L146.443 22.0534H147.777L152.019 35.63L156.353 22.0837H157.777L162.111 35.63L166.384 22.0534H167.656ZM171.683 18.3563H169.743V16.3562H171.683V18.3563ZM171.41 37.4179H170.046V21.6292H171.41V37.4179ZM186.865 33.145H188.29C188.128 33.7309 187.865 34.3168 187.502 34.9026C187.158 35.4683 186.714 35.9835 186.168 36.4482C185.603 36.9129 184.936 37.2866 184.168 37.5695C183.421 37.8725 182.572 38.024 181.623 38.024C180.491 38.024 179.471 37.8018 178.562 37.3573C177.673 36.9331 176.915 36.3472 176.289 35.5997C175.663 34.8521 175.178 33.9834 174.834 32.9934C174.511 31.9833 174.35 30.9024 174.35 29.7508C174.35 28.6195 174.511 27.5588 174.834 26.5688C175.178 25.5587 175.663 24.6798 176.289 23.9323C176.915 23.205 177.673 22.6292 178.562 22.205C179.471 21.7605 180.491 21.5383 181.623 21.5383C182.592 21.5383 183.471 21.71 184.259 22.0534C185.047 22.3969 185.724 22.8212 186.29 23.3262C186.855 23.8313 187.3 24.3869 187.623 24.993C187.966 25.5789 188.189 26.1244 188.29 26.6295H186.926C186.825 26.2658 186.643 25.8617 186.38 25.4173C186.138 24.9526 185.795 24.5283 185.35 24.1445C184.926 23.7606 184.401 23.4374 183.774 23.1747C183.168 22.9121 182.451 22.7808 181.623 22.7808C180.734 22.7808 179.926 22.9626 179.198 23.3262C178.491 23.6697 177.875 24.1546 177.35 24.7809C176.845 25.387 176.451 26.1244 176.168 26.9931C175.885 27.8416 175.744 28.7609 175.744 29.7508C175.744 30.761 175.885 31.7004 176.168 32.5692C176.451 33.4177 176.845 34.1551 177.35 34.7814C177.875 35.4077 178.491 35.8926 179.198 36.2361C179.926 36.5795 180.734 36.7512 181.623 36.7512C182.936 36.7512 184.057 36.4179 184.986 35.7512C185.916 35.0643 186.542 34.1955 186.865 33.145ZM204.131 37.3876H202.767V27.3871C202.767 25.9931 202.332 24.8819 201.464 24.0536C200.615 23.205 199.524 22.7808 198.191 22.7808C197.362 22.7808 196.605 22.9323 195.918 23.2353C195.231 23.5384 194.635 23.9121 194.13 24.3566C193.625 24.8011 193.231 25.2859 192.948 25.8112C192.685 26.3163 192.554 26.7709 192.554 27.1749V37.3876H191.221V16.3258H192.554V24.4172C193.18 23.6293 193.968 22.9525 194.918 22.3868C195.867 21.8211 197.09 21.5383 198.585 21.5383C199.352 21.5383 200.07 21.6797 200.736 21.9625C201.423 22.2454 202.019 22.6292 202.524 23.1141C203.009 23.6192 203.393 24.2152 203.676 24.9021C203.979 25.5688 204.131 26.3062 204.131 27.1143V37.3876Z" fill="#414141"/>
<path d="M33.7813 53.8724C34.3778 54.0937 34.8492 54.4352 35.1955 54.897C35.5419 55.3588 35.6862 55.8783 35.6285 56.4556C35.5804 56.8019 35.4649 57.1434 35.2821 57.4802C35.109 57.8072 34.8636 58.0959 34.5461 58.346C34.2287 58.5961 33.839 58.7982 33.3773 58.9521C32.9251 59.106 32.4104 59.183 31.8332 59.183C31.1693 59.183 30.5873 59.0916 30.087 58.9088C29.5964 58.726 29.1827 58.4759 28.846 58.1584C28.5189 57.8409 28.2784 57.4705 28.1244 57.0472C27.9705 56.6239 27.908 56.1718 27.9368 55.6907H28.5285C28.5093 56.191 28.5862 56.6239 28.7594 56.9895C28.9326 57.3455 29.1731 57.6437 29.4809 57.8842C29.7792 58.1247 30.1351 58.2979 30.5488 58.4037C30.9625 58.5192 31.4002 58.5769 31.862 58.5769C32.218 58.5769 32.5739 58.5336 32.9299 58.447C33.2859 58.3604 33.613 58.2306 33.9112 58.0574C34.1998 57.8842 34.4403 57.6726 34.6327 57.4224C34.8348 57.1723 34.9598 56.8789 35.0079 56.5421C35.0657 56.0515 34.9454 55.6234 34.6472 55.2578C34.3489 54.8826 33.9593 54.594 33.4783 54.392C33.2474 54.3054 32.9972 54.2284 32.7279 54.1611C32.4585 54.0937 32.1891 54.0264 31.9197 53.959C31.6407 53.9013 31.3666 53.8436 31.0972 53.7859C30.8374 53.7281 30.5921 53.6608 30.3612 53.5838C29.7166 53.4107 29.1923 53.1172 28.7883 52.7035C28.3938 52.2899 28.2254 51.7655 28.2832 51.1306C28.3024 50.8227 28.3842 50.5101 28.5285 50.1926C28.6728 49.8751 28.8845 49.5913 29.1635 49.3412C29.4521 49.091 29.808 48.8842 30.2313 48.7206C30.6643 48.5571 31.179 48.4753 31.7754 48.4753C32.4489 48.4753 33.0165 48.5956 33.4783 48.8361C33.9497 49.067 34.3249 49.346 34.6039 49.6731C34.8732 50.0002 35.0608 50.3417 35.1667 50.6977C35.2821 51.0536 35.3302 51.3567 35.311 51.6068H34.6905C34.6905 51.2701 34.6135 50.9478 34.4596 50.6399C34.3153 50.3321 34.1132 50.0627 33.8535 49.8318C33.5841 49.5913 33.2714 49.4037 32.9155 49.269C32.5595 49.1247 32.1795 49.0525 31.7754 49.0525C30.9865 49.0525 30.3227 49.2402 29.784 49.6154C29.2452 49.9906 28.9566 50.4956 28.9181 51.1306C28.8989 51.4481 28.9374 51.7174 29.0336 51.9387C29.1394 52.1504 29.2741 52.3332 29.4376 52.4871C29.6108 52.641 29.8032 52.7661 30.0149 52.8623C30.2265 52.9585 30.4334 53.0403 30.6354 53.1076C30.8086 53.1653 31.0154 53.2182 31.2559 53.2664C31.4964 53.3145 31.7562 53.3674 32.0352 53.4251C32.3142 53.4828 32.6028 53.5502 32.901 53.6271C33.1993 53.6945 33.4927 53.7762 33.7813 53.8724ZM40.926 48.5619C41.5995 48.5619 42.2104 48.6966 42.7588 48.966C43.3167 49.2353 43.793 49.6009 44.1874 50.0627C44.5818 50.5341 44.8849 51.0921 45.0965 51.7367C45.3178 52.3813 45.4285 53.0836 45.4285 53.8436C45.4285 54.6132 45.3178 55.3251 45.0965 55.9793C44.8849 56.6239 44.5818 57.1771 44.1874 57.6389C43.793 58.1103 43.3167 58.4759 42.7588 58.7356C42.2104 59.005 41.5995 59.1397 40.926 59.1397C40.243 59.1397 39.6225 59.005 39.0645 58.7356C38.5161 58.4759 38.0495 58.1103 37.6647 57.6389C37.2702 57.1771 36.9672 56.6239 36.7555 55.9793C36.5439 55.3251 36.4381 54.6132 36.4381 53.8436C36.4381 53.0836 36.5439 52.3813 36.7555 51.7367C36.9672 51.0921 37.2702 50.5341 37.6647 50.0627C38.0495 49.6009 38.5161 49.2353 39.0645 48.966C39.6225 48.6966 40.243 48.5619 40.926 48.5619ZM40.926 58.5336C41.484 58.5336 41.9987 58.4182 42.4701 58.1873C42.9415 57.9467 43.3408 57.6148 43.6679 57.1915C44.0046 56.7779 44.2644 56.2872 44.4472 55.7196C44.6396 55.1424 44.7358 54.517 44.7358 53.8436C44.7358 53.1798 44.6396 52.5641 44.4472 51.9964C44.2644 51.4288 44.0046 50.9334 43.6679 50.5101C43.3408 50.0964 42.9415 49.7693 42.4701 49.5288C41.9987 49.2883 41.484 49.168 40.926 49.168C40.3584 49.168 39.8389 49.2883 39.3675 49.5288C38.9057 49.7693 38.5065 50.0964 38.1697 50.5101C37.8427 50.9334 37.5877 51.4288 37.4049 51.9964C37.2221 52.5641 37.1307 53.1798 37.1307 53.8436C37.1307 54.517 37.2221 55.1424 37.4049 55.7196C37.5877 56.2872 37.8427 56.7779 38.1697 57.1915C38.5065 57.6148 38.9057 57.9467 39.3675 58.1873C39.8389 58.4182 40.3584 58.5336 40.926 58.5336ZM53.7461 49.3556H47.4687V53.6127H53.0823V54.1322H47.4687V58.8655H46.8338V48.8361H53.7461V49.3556ZM62.244 49.3556H58.6796V58.9521H58.0302L58.0157 49.3556H54.4369V48.8361H62.244V49.3556ZM74.9322 48.8217L72.0749 58.9665H71.3966L68.7846 49.8174L66.1871 58.9665H65.5233L62.666 48.8361H63.2721L65.8696 58.0285L68.4239 48.8361H69.1598L71.743 58.0285L74.3116 48.8217H74.9322ZM83.2046 58.8944H82.5697L81.2998 55.9505H75.7583L74.474 58.8799H73.8246L78.1827 48.8217H78.8465L83.2046 58.8944ZM81.0544 55.431L78.529 49.5432L75.9892 55.431H81.0544ZM92.2081 58.8655H91.4721L88.6148 54.594H84.5886V58.8655L83.9537 58.8511V48.8217H88.3839C88.8842 48.8217 89.3364 48.8986 89.7404 49.0525C90.1445 49.1969 90.4908 49.3989 90.7795 49.6586C91.0585 49.9184 91.2749 50.2214 91.4288 50.5678C91.5828 50.9141 91.6597 51.2845 91.6597 51.679C91.6597 52.0542 91.5876 52.4005 91.4433 52.718C91.299 53.0355 91.1162 53.3193 90.8949 53.5694C90.664 53.8099 90.4043 54.0119 90.1156 54.1755C89.8366 54.339 89.5576 54.4497 89.2787 54.5074L92.2081 58.8655ZM88.2974 54.0745C88.6245 54.0745 88.9467 54.0312 89.2642 53.9446C89.5817 53.8484 89.8655 53.7041 90.1156 53.5117C90.3658 53.3096 90.5678 53.0595 90.7217 52.7613C90.8853 52.463 90.9671 52.1023 90.9671 51.679C90.9671 51.2557 90.8853 50.8949 90.7217 50.5966C90.5678 50.2984 90.3658 50.0579 90.1156 49.8751C89.8655 49.6827 89.5817 49.5432 89.2642 49.4566C88.9467 49.37 88.6245 49.3267 88.2974 49.3267H84.5886V54.0745H88.2974ZM100.159 58.8655L92.9729 58.8511V48.8361H100.015V49.3556H93.6079V53.3962H99.7843V53.9302H93.6079V58.346L100.159 58.3316V58.8655ZM111.784 53.8724C112.38 54.0937 112.852 54.4352 113.198 54.897C113.544 55.3588 113.689 55.8783 113.631 56.4556C113.583 56.8019 113.467 57.1434 113.285 57.4802C113.112 57.8072 112.866 58.0959 112.549 58.346C112.231 58.5961 111.842 58.7982 111.38 58.9521C110.928 59.106 110.413 59.183 109.836 59.183C109.172 59.183 108.59 59.0916 108.09 58.9088C107.599 58.726 107.185 58.4759 106.849 58.1584C106.521 57.8409 106.281 57.4705 106.127 57.0472C105.973 56.6239 105.911 56.1718 105.939 55.6907H106.531C106.512 56.191 106.589 56.6239 106.762 56.9895C106.935 57.3455 107.176 57.6437 107.483 57.8842C107.782 58.1247 108.138 58.2979 108.551 58.4037C108.965 58.5192 109.403 58.5769 109.865 58.5769C110.221 58.5769 110.576 58.5336 110.932 58.447C111.288 58.3604 111.616 58.2306 111.914 58.0574C112.202 57.8842 112.443 57.6726 112.635 57.4224C112.837 57.1723 112.962 56.8789 113.01 56.5421C113.068 56.0515 112.948 55.6234 112.65 55.2578C112.351 54.8826 111.962 54.594 111.481 54.392C111.25 54.3054 111 54.2284 110.73 54.1611C110.461 54.0937 110.192 54.0264 109.922 53.959C109.643 53.9013 109.369 53.8436 109.1 53.7859C108.84 53.7281 108.595 53.6608 108.364 53.5838C107.719 53.4107 107.195 53.1172 106.791 52.7035C106.396 52.2899 106.228 51.7655 106.286 51.1306C106.305 50.8227 106.387 50.5101 106.531 50.1926C106.675 49.8751 106.887 49.5913 107.166 49.3412C107.455 49.091 107.811 48.8842 108.234 48.7206C108.667 48.5571 109.182 48.4753 109.778 48.4753C110.451 48.4753 111.019 48.5956 111.481 48.8361C111.952 49.067 112.327 49.346 112.606 49.6731C112.876 50.0002 113.063 50.3417 113.169 50.6977C113.285 51.0536 113.333 51.3567 113.314 51.6068H112.693C112.693 51.2701 112.616 50.9478 112.462 50.6399C112.318 50.3321 112.116 50.0627 111.856 49.8318C111.587 49.5913 111.274 49.4037 110.918 49.269C110.562 49.1247 110.182 49.0525 109.778 49.0525C108.989 49.0525 108.325 49.2402 107.787 49.6154C107.248 49.9906 106.959 50.4956 106.921 51.1306C106.901 51.4481 106.94 51.7174 107.036 51.9387C107.142 52.1504 107.277 52.3332 107.44 52.4871C107.613 52.641 107.806 52.7661 108.017 52.8623C108.229 52.9585 108.436 53.0403 108.638 53.1076C108.811 53.1653 109.018 53.2182 109.258 53.2664C109.499 53.3145 109.759 53.3674 110.038 53.4251C110.317 53.4828 110.605 53.5502 110.904 53.6271C111.202 53.6945 111.495 53.7762 111.784 53.8724ZM118.929 48.5619C119.602 48.5619 120.213 48.6966 120.761 48.966C121.319 49.2353 121.796 49.6009 122.19 50.0627C122.584 50.5341 122.887 51.0921 123.099 51.7367C123.32 52.3813 123.431 53.0836 123.431 53.8436C123.431 54.6132 123.32 55.3251 123.099 55.9793C122.887 56.6239 122.584 57.1771 122.19 57.6389C121.796 58.1103 121.319 58.4759 120.761 58.7356C120.213 59.005 119.602 59.1397 118.929 59.1397C118.246 59.1397 117.625 59.005 117.067 58.7356C116.519 58.4759 116.052 58.1103 115.667 57.6389C115.273 57.1771 114.97 56.6239 114.758 55.9793C114.546 55.3251 114.441 54.6132 114.441 53.8436C114.441 53.0836 114.546 52.3813 114.758 51.7367C114.97 51.0921 115.273 50.5341 115.667 50.0627C116.052 49.6009 116.519 49.2353 117.067 48.966C117.625 48.6966 118.246 48.5619 118.929 48.5619ZM118.929 58.5336C119.487 58.5336 120.001 58.4182 120.473 58.1873C120.944 57.9467 121.343 57.6148 121.67 57.1915C122.007 56.7779 122.267 56.2872 122.45 55.7196C122.642 55.1424 122.738 54.517 122.738 53.8436C122.738 53.1798 122.642 52.5641 122.45 51.9964C122.267 51.4288 122.007 50.9334 121.67 50.5101C121.343 50.0964 120.944 49.7693 120.473 49.5288C120.001 49.2883 119.487 49.168 118.929 49.168C118.361 49.168 117.841 49.2883 117.37 49.5288C116.908 49.7693 116.509 50.0964 116.172 50.5101C115.845 50.9334 115.59 51.4288 115.407 51.9964C115.225 52.5641 115.133 53.1798 115.133 53.8436C115.133 54.517 115.225 55.1424 115.407 55.7196C115.59 56.2872 115.845 56.7779 116.172 57.1915C116.509 57.6148 116.908 57.9467 117.37 58.1873C117.841 58.4182 118.361 58.5336 118.929 58.5336ZM131.59 58.8655H124.836V48.8361H125.442V58.346H131.59V58.8655ZM139.486 48.8361V55.734C139.486 56.2247 139.399 56.6816 139.226 57.1049C139.053 57.5186 138.807 57.8746 138.49 58.1728C138.163 58.4807 137.764 58.7164 137.292 58.8799C136.821 59.0531 136.282 59.1397 135.676 59.1397C135.07 59.1397 134.531 59.0531 134.06 58.8799C133.598 58.7164 133.203 58.4807 132.876 58.1728C132.559 57.8746 132.314 57.5186 132.14 57.1049C131.977 56.6816 131.895 56.2247 131.895 55.734L131.909 48.8361H132.544V55.5609C132.544 56.494 132.823 57.2204 133.381 57.7399C133.949 58.2498 134.714 58.5047 135.676 58.5047C136.638 58.5047 137.403 58.2498 137.97 57.7399C138.538 57.2204 138.822 56.494 138.822 55.5609L138.807 48.8361H139.486ZM148.096 49.3556H144.532V58.9521H143.882L143.868 49.3556H140.289V48.8361H148.096V49.3556ZM149.597 58.8655H148.977V48.8361H149.583L149.597 58.8655ZM155.471 48.5619C156.144 48.5619 156.755 48.6966 157.303 48.966C157.861 49.2353 158.338 49.6009 158.732 50.0627C159.127 50.5341 159.43 51.0921 159.641 51.7367C159.862 52.3813 159.973 53.0836 159.973 53.8436C159.973 54.6132 159.862 55.3251 159.641 55.9793C159.43 56.6239 159.127 57.1771 158.732 57.6389C158.338 58.1103 157.861 58.4759 157.303 58.7356C156.755 59.005 156.144 59.1397 155.471 59.1397C154.788 59.1397 154.167 59.005 153.609 58.7356C153.061 58.4759 152.594 58.1103 152.209 57.6389C151.815 57.1771 151.512 56.6239 151.3 55.9793C151.089 55.3251 150.983 54.6132 150.983 53.8436C150.983 53.0836 151.089 52.3813 151.3 51.7367C151.512 51.0921 151.815 50.5341 152.209 50.0627C152.594 49.6009 153.061 49.2353 153.609 48.966C154.167 48.6966 154.788 48.5619 155.471 48.5619ZM155.471 58.5336C156.029 58.5336 156.543 58.4182 157.015 58.1873C157.486 57.9467 157.885 57.6148 158.213 57.1915C158.549 56.7779 158.809 56.2872 158.992 55.7196C159.184 55.1424 159.28 54.517 159.28 53.8436C159.28 53.1798 159.184 52.5641 158.992 51.9964C158.809 51.4288 158.549 50.9334 158.213 50.5101C157.885 50.0964 157.486 49.7693 157.015 49.5288C156.543 49.2883 156.029 49.168 155.471 49.168C154.903 49.168 154.384 49.2883 153.912 49.5288C153.45 49.7693 153.051 50.0964 152.714 50.5101C152.387 50.9334 152.132 51.4288 151.95 51.9964C151.767 52.5641 151.675 53.1798 151.675 53.8436C151.675 54.517 151.767 55.1424 151.95 55.7196C152.132 56.2872 152.387 56.7779 152.714 57.1915C153.051 57.6148 153.45 57.9467 153.912 58.1873C154.384 58.4182 154.903 58.5336 155.471 58.5336ZM169.113 58.8511L168.363 58.8655L162.028 49.6586V58.8655L161.378 58.8511V48.8217H162.129L168.478 58.0285V48.8361H169.113V58.8511ZM176.243 53.8724C176.84 54.0937 177.311 54.4352 177.658 54.897C178.004 55.3588 178.148 55.8783 178.091 56.4556C178.042 56.8019 177.927 57.1434 177.744 57.4802C177.571 57.8072 177.326 58.0959 177.008 58.346C176.691 58.5961 176.301 58.7982 175.839 58.9521C175.387 59.106 174.872 59.183 174.295 59.183C173.631 59.183 173.049 59.0916 172.549 58.9088C172.058 58.726 171.645 58.4759 171.308 58.1584C170.981 57.8409 170.74 57.4705 170.587 57.0472C170.433 56.6239 170.37 56.1718 170.399 55.6907H170.991C170.971 56.191 171.048 56.6239 171.221 56.9895C171.395 57.3455 171.635 57.6437 171.943 57.8842C172.241 58.1247 172.597 58.2979 173.011 58.4037C173.425 58.5192 173.862 58.5769 174.324 58.5769C174.68 58.5769 175.036 58.5336 175.392 58.447C175.748 58.3604 176.075 58.2306 176.373 58.0574C176.662 57.8842 176.902 57.6726 177.095 57.4224C177.297 57.1723 177.422 56.8789 177.47 56.5421C177.528 56.0515 177.407 55.6234 177.109 55.2578C176.811 54.8826 176.421 54.594 175.94 54.392C175.709 54.3054 175.459 54.2284 175.19 54.1611C174.921 54.0937 174.651 54.0264 174.382 53.959C174.103 53.9013 173.829 53.8436 173.559 53.7859C173.3 53.7281 173.054 53.6608 172.823 53.5838C172.179 53.4107 171.654 53.1172 171.25 52.7035C170.856 52.2899 170.688 51.7655 170.745 51.1306C170.765 50.8227 170.846 50.5101 170.991 50.1926C171.135 49.8751 171.347 49.5913 171.626 49.3412C171.914 49.091 172.27 48.8842 172.693 48.7206C173.126 48.5571 173.641 48.4753 174.238 48.4753C174.911 48.4753 175.479 48.5956 175.94 48.8361C176.412 49.067 176.787 49.346 177.066 49.6731C177.335 50.0002 177.523 50.3417 177.629 50.6977C177.744 51.0536 177.792 51.3567 177.773 51.6068H177.153C177.153 51.2701 177.076 50.9478 176.922 50.6399C176.777 50.3321 176.575 50.0627 176.316 49.8318C176.046 49.5913 175.734 49.4037 175.378 49.269C175.022 49.1247 174.642 49.0525 174.238 49.0525C173.449 49.0525 172.785 49.2402 172.246 49.6154C171.707 49.9906 171.419 50.4956 171.38 51.1306C171.361 51.4481 171.399 51.7174 171.496 51.9387C171.601 52.1504 171.736 52.3332 171.9 52.4871C172.073 52.641 172.265 52.7661 172.477 52.8623C172.689 52.9585 172.895 53.0403 173.097 53.1076C173.271 53.1653 173.477 53.2182 173.718 53.2664C173.959 53.3145 174.218 53.3674 174.497 53.4251C174.776 53.4828 175.065 53.5502 175.363 53.6271C175.661 53.6945 175.955 53.7762 176.243 53.8724Z" fill="#414141"/>
<circle cx="169.921" cy="1.80385" r="1.80385" fill="#0C8BEC"/>
<circle cx="177.859" cy="1.80385" r="1.80385" fill="#0C8BEC"/>
</svg>
