<svg width="44" height="31" viewBox="0 0 44 31" fill="none" xmlns="http://www.w3.org/2000/svg">
<path d="M28.3041 30.1216C21.6899 30.1216 15.7311 25.7717 13.8243 19.3362H20.2896C21.958 22.3156 24.8481 24.133 28.3041 24.133C33.3095 24.133 37.3913 20.1406 37.3913 15.0459C37.3913 10.0107 33.3095 5.95876 28.3041 5.95876C25.2056 5.95876 22.5241 7.44846 20.7365 9.98093H14.0925C16.2376 3.99237 21.8687 0 28.3041 0C36.6166 0 43.3798 6.70361 43.3798 15.0459C43.3798 23.3882 36.6166 30.1216 28.3041 30.1216ZM0 9.29567V9.08712C0 4.3201 3.81361 0.506494 8.58062 0.506494H20.5279C17.9061 1.9068 15.7311 3.96258 14.1819 6.46526H8.67C7.21011 6.46526 6.04815 7.65701 5.95877 9.11691C5.95877 10.6662 7.18031 11.8579 8.72959 11.8579H21.8985C26.7847 11.8579 30.7472 15.8503 30.7472 20.7365C30.7472 21.3026 30.7174 21.8091 30.5983 22.3752C29.8832 22.5837 29.1086 22.7327 28.3041 22.7327C26.9038 22.7327 25.6823 22.3752 24.5799 21.7495C24.6991 21.4516 24.7587 21.1238 24.7587 20.7365C24.7587 19.1574 23.5669 17.8465 21.8985 17.8465H8.58062C3.81361 17.8465 0 14.0031 0 9.29567ZM0 20.7365H5.98856C5.98856 22.3156 7.26969 23.5967 8.81897 23.6265H14.1819C15.7609 26.2186 17.8763 28.2148 20.5279 29.6151H8.81897C3.93279 29.6151 0 25.5035 0 20.7365Z" fill="#FB3800"/>
</svg>
